<svg width="248" height="28" viewBox="0 0 248 28" fill="none" xmlns="http://www.w3.org/2000/svg">
<path d="M29.6707 13.438C29.4276 13.438 29.2319 13.3639 29.0837 13.2158C28.9354 13.0676 28.8613 12.8721 28.8613 12.6292V7.87391C28.8613 7.63097 28.9265 7.44431 29.057 7.31395C29.1874 7.18359 29.3742 7.11841 29.6173 7.11841H32.606C32.8729 7.11841 33.0686 7.17174 33.1931 7.2784C33.3176 7.37913 33.3799 7.54208 33.3799 7.76725C33.3799 7.9865 33.3147 8.14649 33.1842 8.24722C33.0597 8.34796 32.867 8.39832 32.606 8.39832H30.4713V9.55381H32.4281C32.6891 9.55381 32.8818 9.60713 33.0063 9.71379C33.1368 9.82045 33.202 9.98341 33.202 10.2027C33.202 10.4219 33.1368 10.5819 33.0063 10.6826C32.8818 10.7834 32.6891 10.8337 32.4281 10.8337H30.4713V12.6292C30.4713 12.878 30.3971 13.0765 30.2489 13.2247C30.1066 13.3669 29.9138 13.438 29.6707 13.438Z" fill="#0C7800"/>
<path d="M39.2783 12.3447C39.3851 12.5047 39.4385 12.6558 39.4385 12.798C39.4385 12.9877 39.3584 13.1476 39.1983 13.278C39.0441 13.4024 38.8632 13.4647 38.6557 13.4647C38.5134 13.4647 38.38 13.4321 38.2554 13.3669C38.1309 13.3017 38.0242 13.2039 37.9352 13.0736L36.7789 11.3848C36.6959 11.2663 36.6069 11.1804 36.512 11.127C36.4231 11.0678 36.3163 11.0382 36.1918 11.0382H35.6136V12.6292C35.6136 12.878 35.5425 13.0765 35.4002 13.2247C35.2578 13.3669 35.0622 13.438 34.8131 13.438C34.564 13.438 34.3654 13.3669 34.2171 13.2247C34.0748 13.0765 34.0037 12.878 34.0037 12.6292V7.87391C34.0037 7.63097 34.0689 7.44431 34.1993 7.31395C34.3298 7.18359 34.5166 7.11841 34.7597 7.11841H36.9924C37.7514 7.11841 38.3207 7.28432 38.7002 7.61615C39.0856 7.94206 39.2783 8.4161 39.2783 9.03828C39.2783 9.51233 39.1479 9.91526 38.887 10.2471C38.6261 10.573 38.2584 10.7922 37.784 10.9048C37.9797 10.9345 38.1487 10.9996 38.291 11.1004C38.4393 11.2011 38.5845 11.3522 38.7269 11.5537L39.2783 12.3447ZM36.7344 9.81157C37.0961 9.81157 37.3541 9.75527 37.5083 9.64269C37.6684 9.5301 37.7484 9.34641 37.7484 9.09161C37.7484 8.83089 37.6684 8.64423 37.5083 8.53165C37.3541 8.41314 37.0961 8.35388 36.7344 8.35388H35.5958V9.81157H36.7344Z" fill="#0C7800"/>
<path d="M41.0487 13.3847C40.8056 13.3847 40.6188 13.3195 40.4883 13.1891C40.3579 13.0588 40.2926 12.8721 40.2926 12.6292V7.87391C40.2926 7.63097 40.3579 7.44431 40.4883 7.31395C40.6188 7.18359 40.8056 7.11841 41.0487 7.11841H44.1264C44.3813 7.11841 44.5741 7.17174 44.7045 7.2784C44.835 7.38506 44.9002 7.53912 44.9002 7.74059C44.9002 8.16723 44.6423 8.38055 44.1264 8.38055H41.8848V9.57158H43.9485C44.4644 9.57158 44.7223 9.78194 44.7223 10.2027C44.7223 10.4041 44.6571 10.5582 44.5266 10.6648C44.3962 10.7715 44.2034 10.8248 43.9485 10.8248H41.8848V12.1225H44.1264C44.6423 12.1225 44.9002 12.3358 44.9002 12.7625C44.9002 12.964 44.835 13.118 44.7045 13.2247C44.5741 13.3313 44.3813 13.3847 44.1264 13.3847H41.0487Z" fill="#0C7800"/>
<path d="M46.3561 13.3847C46.113 13.3847 45.9262 13.3195 45.7958 13.1891C45.6653 13.0588 45.6001 12.8721 45.6001 12.6292V7.87391C45.6001 7.63097 45.6653 7.44431 45.7958 7.31395C45.9262 7.18359 46.113 7.11841 46.3561 7.11841H49.4338C49.6888 7.11841 49.8815 7.17174 50.0119 7.2784C50.1424 7.38506 50.2076 7.53912 50.2076 7.74059C50.2076 8.16723 49.9497 8.38055 49.4338 8.38055H47.1923V9.57158H49.2559C49.7718 9.57158 50.0297 9.78194 50.0297 10.2027C50.0297 10.4041 49.9645 10.5582 49.834 10.6648C49.7036 10.7715 49.5109 10.8248 49.2559 10.8248H47.1923V12.1225H49.4338C49.9497 12.1225 50.2076 12.3358 50.2076 12.7625C50.2076 12.964 50.1424 13.118 50.0119 13.2247C49.8815 13.3313 49.6888 13.3847 49.4338 13.3847H46.3561Z" fill="#0C7800"/>
<path d="M31.8411 21.836C31.2006 21.836 30.6432 21.7057 30.1688 21.445C29.7004 21.1783 29.3386 20.805 29.0837 20.325C28.8287 19.8391 28.7012 19.2703 28.7012 18.6185C28.7012 17.9667 28.8287 17.4008 29.0837 16.9208C29.3386 16.4349 29.7004 16.0616 30.1688 15.8009C30.6432 15.5402 31.2006 15.4098 31.8411 15.4098C32.4815 15.4098 33.036 15.5402 33.5044 15.8009C33.9788 16.0616 34.3406 16.4349 34.5896 16.9208C34.8446 17.4008 34.9721 17.9667 34.9721 18.6185C34.9721 19.2703 34.8446 19.8391 34.5896 20.325C34.3346 20.805 33.9699 21.1783 33.4955 21.445C33.0271 21.7057 32.4756 21.836 31.8411 21.836ZM31.8411 20.5828C32.3155 20.5828 32.6861 20.4169 32.9529 20.0851C33.2198 19.7473 33.3532 19.2584 33.3532 18.6185C33.3532 17.9785 33.2168 17.4926 32.944 17.1608C32.6772 16.829 32.3095 16.6631 31.8411 16.6631C31.3667 16.6631 30.9961 16.829 30.7292 17.1608C30.4624 17.4867 30.3289 17.9726 30.3289 18.6185C30.3289 19.2644 30.4624 19.7532 30.7292 20.0851C30.9961 20.4169 31.3667 20.5828 31.8411 20.5828Z" fill="#0C7800"/>
<path d="M40.7618 15.4454C40.9871 15.4454 41.171 15.5194 41.3133 15.6676C41.4615 15.8157 41.5356 16.0083 41.5356 16.2453V21.0005C41.5356 21.2435 41.4645 21.439 41.3222 21.5872C41.1798 21.7353 40.996 21.8094 40.7707 21.8094C40.5038 21.8094 40.3022 21.7205 40.1658 21.5427L37.4618 18.1741V21.0005C37.4618 21.2435 37.3936 21.439 37.2572 21.5872C37.1208 21.7353 36.937 21.8094 36.7057 21.8094C36.4804 21.8094 36.2965 21.7353 36.1542 21.5872C36.0119 21.439 35.9407 21.2435 35.9407 21.0005V16.2453C35.9407 16.0083 36.0119 15.8157 36.1542 15.6676C36.2965 15.5194 36.4804 15.4454 36.7057 15.4454C36.9607 15.4454 37.1593 15.5342 37.3017 15.712L40.0057 19.0718V16.2453C40.0057 16.0024 40.0739 15.8098 40.2103 15.6676C40.3526 15.5194 40.5364 15.4454 40.7618 15.4454Z" fill="#0C7800"/>
<path d="M47.5827 18.2185C47.7784 18.2185 47.9326 18.2748 48.0453 18.3874C48.1639 18.494 48.2232 18.6392 48.2232 18.8229V20.3695C48.2232 20.6658 48.1994 20.8939 48.152 21.0539C48.1105 21.2079 48.0304 21.3294 47.9118 21.4183C47.7992 21.5072 47.6272 21.5842 47.3959 21.6494C47.1647 21.7086 46.9067 21.7531 46.6221 21.7827C46.3434 21.8183 46.0825 21.836 45.8393 21.836C45.1574 21.836 44.5644 21.7086 44.0603 21.4538C43.5622 21.1931 43.1797 20.8228 42.9129 20.3428C42.646 19.8569 42.5126 19.2821 42.5126 18.6185C42.5126 17.9667 42.646 17.4008 42.9129 16.9208C43.1797 16.4349 43.5593 16.0616 44.0514 15.8009C44.5436 15.5402 45.1188 15.4098 45.7771 15.4098C46.1922 15.4098 46.5628 15.4602 46.8889 15.5609C47.221 15.6557 47.5294 15.8038 47.814 16.0053C47.9148 16.0764 47.986 16.1535 48.0275 16.2364C48.0749 16.3194 48.0986 16.426 48.0986 16.5564C48.0986 16.7401 48.0482 16.8971 47.9474 17.0275C47.8466 17.1519 47.725 17.2141 47.5827 17.2141C47.4879 17.2141 47.4048 17.2023 47.3337 17.1786C47.2684 17.1489 47.1825 17.1015 47.0757 17.0364C46.8563 16.9178 46.6488 16.8319 46.4531 16.7786C46.2633 16.7253 46.0558 16.6986 45.8304 16.6986C45.2671 16.6986 44.8461 16.8556 44.5674 17.1697C44.2946 17.4837 44.1582 17.9667 44.1582 18.6185C44.1582 19.2881 44.3005 19.7858 44.5851 20.1117C44.8757 20.4317 45.3175 20.5917 45.9105 20.5917C46.1951 20.5917 46.4768 20.5621 46.7555 20.5028V19.3384H46.1151C45.9194 19.3384 45.7682 19.291 45.6614 19.1962C45.5547 19.0955 45.5013 18.9562 45.5013 18.7785C45.5013 18.6007 45.5547 18.4644 45.6614 18.3696C45.7682 18.2689 45.9194 18.2185 46.1151 18.2185H47.5827Z" fill="#0C7800"/>
<path d="M54.5843 20.5295C54.7385 20.6776 54.8156 20.8494 54.8156 21.045C54.8156 21.2405 54.7414 21.4124 54.5932 21.5605C54.4449 21.7086 54.27 21.7827 54.0684 21.7827C53.849 21.7827 53.6474 21.6879 53.4635 21.4983L50.9285 18.9029V21.0005C50.9285 21.2494 50.8543 21.4479 50.7061 21.5961C50.5578 21.7383 50.3562 21.8094 50.1012 21.8094C49.8522 21.8094 49.6535 21.7383 49.5053 21.5961C49.363 21.4479 49.2918 21.2494 49.2918 21.0005V16.2453C49.2918 16.0024 49.363 15.8098 49.5053 15.6676C49.6535 15.5194 49.8522 15.4454 50.1012 15.4454C50.3562 15.4454 50.5578 15.5194 50.7061 15.6676C50.8543 15.8098 50.9285 16.0024 50.9285 16.2453V18.2007L53.4279 15.6853C53.5821 15.5253 53.7571 15.4454 53.9527 15.4454C54.1484 15.4454 54.3204 15.5194 54.4687 15.6676C54.6169 15.8098 54.691 15.9787 54.691 16.1742C54.691 16.3697 54.605 16.5505 54.4331 16.7164L52.6096 18.5029L54.5843 20.5295Z" fill="#0C7800"/>
<path d="M56.3121 21.8094C56.063 21.8094 55.8643 21.7383 55.7161 21.5961C55.5738 21.4479 55.5026 21.2494 55.5026 21.0005V16.2453C55.5026 16.0024 55.5738 15.8098 55.7161 15.6676C55.8643 15.5194 56.063 15.4454 56.3121 15.4454C56.567 15.4454 56.7687 15.5194 56.9169 15.6676C57.0652 15.8098 57.1393 16.0024 57.1393 16.2453V21.0005C57.1393 21.2494 57.0652 21.4479 56.9169 21.5961C56.7687 21.7383 56.567 21.8094 56.3121 21.8094Z" fill="#0C7800"/>
<path d="M63.5483 20.7161C63.655 20.8761 63.7084 21.0272 63.7084 21.1694C63.7084 21.359 63.6283 21.519 63.4682 21.6494C63.3141 21.7738 63.1332 21.836 62.9256 21.836C62.7833 21.836 62.6499 21.8035 62.5254 21.7383C62.4008 21.6731 62.2941 21.5753 62.2052 21.445L61.0488 19.7562C60.9658 19.6377 60.8768 19.5518 60.782 19.4984C60.693 19.4392 60.5863 19.4095 60.4617 19.4095H59.8836V21.0005C59.8836 21.2494 59.8124 21.4479 59.6701 21.5961C59.5278 21.7383 59.3321 21.8094 59.083 21.8094C58.834 21.8094 58.6353 21.7383 58.4871 21.5961C58.3448 21.4479 58.2736 21.2494 58.2736 21.0005V16.2453C58.2736 16.0024 58.3388 15.8157 58.4693 15.6853C58.5997 15.555 58.7865 15.4898 59.0297 15.4898H61.2623C62.0213 15.4898 62.5906 15.6557 62.9701 15.9875C63.3556 16.3134 63.5483 16.7875 63.5483 17.4097C63.5483 17.8837 63.4178 18.2866 63.1569 18.6185C62.896 18.9444 62.5283 19.1636 62.0539 19.2762C62.2496 19.3058 62.4186 19.371 62.5609 19.4718C62.7092 19.5725 62.8545 19.7236 62.9968 19.9251L63.5483 20.7161ZM61.0043 18.183C61.3661 18.183 61.624 18.1267 61.7782 18.0141C61.9383 17.9015 62.0184 17.7178 62.0184 17.463C62.0184 17.2023 61.9383 17.0156 61.7782 16.903C61.624 16.7845 61.3661 16.7253 61.0043 16.7253H59.8658V18.183H61.0043Z" fill="#0C7800"/>
<path d="M4.49194 7.60831L17.7835 7.60828V9.27322H20.4343L24.1453 13.4356V18.506H22.5549M15.1328 18.506H14.0725M6.99122 18.506H4.49194V14.2681" stroke="#0C7800" stroke-width="1.30245" stroke-linecap="round" stroke-linejoin="round"/>
<path d="M4 10.1053H8.65768" stroke="#0C7800" stroke-width="1.30245" stroke-linecap="round" stroke-linejoin="round"/>
<path d="M5.05939 12.2246H8.65678" stroke="#0C7800" stroke-width="1.30245" stroke-linecap="round" stroke-linejoin="round"/>
<path d="M6.6507 14.3436H8.65767" stroke="#0C7800" stroke-width="1.30245" stroke-linecap="round" stroke-linejoin="round"/>
<ellipse cx="18.8441" cy="18.5059" rx="1.59044" ry="1.58926" stroke="#0C7800" stroke-width="1.30245" stroke-linecap="round" stroke-linejoin="round"/>
<ellipse cx="10.3619" cy="18.5059" rx="1.59044" ry="1.58926" stroke="#0C7800" stroke-width="1.30245" stroke-linecap="round" stroke-linejoin="round"/>
<path d="M17.7839 14.4194V11.7706H18.8442L21.1541 14.4194H17.7839Z" stroke="#0C7800" stroke-width="1.30245" stroke-linecap="round" stroke-linejoin="round"/>
<path d="M81.8981 21.2937L84.4005 23.2941L86.9029 21.2937C90.4047 18.4943 92.5109 14.3083 92.671 9.83001L92.7396 7.91028L84.4005 4.70532L76.0614 7.91028L76.13 9.83001C76.2901 14.3083 78.3963 18.4943 81.8981 21.2937Z" stroke="#0C7800" stroke-width="1.30245" stroke-linecap="round" stroke-linejoin="round"/>
<path d="M83.1077 10.4001V8.79704C83.1077 8.54179 83.2519 8.30847 83.4803 8.19439L83.4963 8.18638C83.9369 7.96627 84.455 8.28664 84.455 8.77912C84.455 8.95494 84.3852 9.12355 84.2608 9.24782L83.1077 10.4001ZM83.1077 10.4001L81.0352 8.84684C80.6623 8.56737 80.1537 8.55326 79.7659 8.81162C79.1125 9.24689 79.1125 10.2069 79.7659 10.6422L79.9532 10.767C80.246 10.9621 80.6076 11.0247 80.9489 10.9394L83.1077 10.4001Z" stroke="#0C7800" stroke-width="1.30245" stroke-linecap="round" stroke-linejoin="round"/>
<path d="M88.178 12.1955C89.2149 13.9903 88.8249 16.6752 87.0288 17.7114C85.2327 18.7476 82.7108 17.7427 81.6738 15.9479C80.6368 14.1532 81.4776 12.2483 83.2736 11.2121C85.0697 10.1759 87.141 10.4008 88.178 12.1955Z" stroke="#0C7800" stroke-width="1.30245" stroke-linecap="round" stroke-linejoin="round"/>
<path d="M97.3308 13.9462C96.8533 13.9462 96.4086 13.8955 95.9968 13.7941C95.5909 13.6868 95.2567 13.5407 94.9941 13.3558C94.8926 13.2782 94.818 13.1977 94.7703 13.1142C94.7285 13.0307 94.7076 12.9234 94.7076 12.7922C94.7076 12.6132 94.7613 12.4582 94.8687 12.327C94.9762 12.1957 95.1015 12.1301 95.2448 12.1301C95.3223 12.1301 95.397 12.1421 95.4686 12.1659C95.5402 12.1898 95.6297 12.2345 95.7372 12.3001C95.9819 12.4373 96.2236 12.5357 96.4623 12.5953C96.7071 12.655 96.9816 12.6848 97.286 12.6848C97.6382 12.6848 97.9038 12.6341 98.0828 12.5327C98.2678 12.4254 98.3604 12.2703 98.3604 12.0675C98.3604 11.9303 98.2738 11.814 98.1007 11.7186C97.9336 11.6172 97.6113 11.5188 97.1338 11.4234C96.5429 11.2981 96.0804 11.149 95.7461 10.9761C95.4119 10.8031 95.1761 10.6003 95.0388 10.3677C94.9075 10.1292 94.8419 9.84288 94.8419 9.50889C94.8419 9.12718 94.9553 8.78126 95.1821 8.47112C95.4089 8.16098 95.7193 7.91944 96.1132 7.74648C96.5131 7.56755 96.9607 7.47809 97.4561 7.47809C97.8918 7.47809 98.2798 7.5258 98.62 7.62123C98.9602 7.71665 99.2706 7.86576 99.5511 8.06854C99.6585 8.14607 99.7331 8.22957 99.7749 8.31904C99.8227 8.40253 99.8465 8.50691 99.8465 8.63215C99.8465 8.81108 99.7928 8.96615 99.6854 9.09736C99.5839 9.22857 99.4616 9.29418 99.3183 9.29418C99.2407 9.29418 99.1691 9.28523 99.1035 9.26734C99.0378 9.24348 98.9453 9.19577 98.8259 9.1242C98.7961 9.1063 98.7095 9.06157 98.5663 8.99C98.429 8.91247 98.2649 8.85283 98.0739 8.81108C97.8888 8.76337 97.6859 8.73951 97.4651 8.73951C97.1607 8.73951 96.916 8.79915 96.7309 8.91843C96.5459 9.03175 96.4534 9.18384 96.4534 9.37469C96.4534 9.48801 96.4862 9.58046 96.5519 9.65202C96.6175 9.72359 96.7399 9.79516 96.9189 9.86673C97.098 9.93234 97.3636 10.0009 97.7158 10.0725C98.2887 10.1977 98.7394 10.3498 99.0676 10.5288C99.3959 10.7017 99.6287 10.9045 99.766 11.1371C99.9032 11.3697 99.9719 11.6441 99.9719 11.9602C99.9719 12.3538 99.8615 12.7027 99.6406 13.0069C99.4198 13.3051 99.1094 13.5377 98.7095 13.7047C98.3156 13.8657 97.856 13.9462 97.3308 13.9462Z" fill="#0C7800"/>
<path d="M101.665 13.8657C101.42 13.8657 101.232 13.8001 101.101 13.6689C100.969 13.5377 100.904 13.3498 100.904 13.1053V8.31904C100.904 8.0745 100.969 7.88663 101.101 7.75542C101.232 7.62421 101.42 7.5586 101.665 7.5586H104.762C105.019 7.5586 105.213 7.61228 105.344 7.71964C105.475 7.82699 105.541 7.98206 105.541 8.18484C105.541 8.61426 105.282 8.82897 104.762 8.82897H102.506V10.0278H104.583C105.102 10.0278 105.362 10.2395 105.362 10.663C105.362 10.8657 105.296 11.0208 105.165 11.1282C105.034 11.2355 104.84 11.2892 104.583 11.2892H102.506V12.5953H104.762C105.282 12.5953 105.541 12.81 105.541 13.2395C105.541 13.4422 105.475 13.5973 105.344 13.7047C105.213 13.812 105.019 13.8657 104.762 13.8657H101.665Z" fill="#0C7800"/>
<path d="M111.196 10.3051C111.393 10.3051 111.548 10.3618 111.662 10.4751C111.781 10.5824 111.841 10.7286 111.841 10.9134V12.4701C111.841 12.7683 111.817 12.9979 111.769 13.159C111.728 13.314 111.647 13.4363 111.528 13.5257C111.414 13.6152 111.241 13.6927 111.008 13.7583C110.776 13.818 110.516 13.8627 110.229 13.8925C109.949 13.9283 109.686 13.9462 109.442 13.9462C108.755 13.9462 108.158 13.818 107.651 13.5615C107.15 13.2991 106.765 12.9263 106.496 12.4433C106.227 11.9542 106.093 11.3757 106.093 10.7077C106.093 10.0516 106.227 9.48205 106.496 8.99895C106.765 8.50989 107.147 8.13415 107.642 7.87172C108.137 7.6093 108.716 7.47809 109.379 7.47809C109.797 7.47809 110.17 7.52878 110.498 7.63017C110.832 7.7256 111.143 7.87471 111.429 8.07749C111.531 8.14906 111.602 8.22659 111.644 8.31009C111.692 8.39359 111.716 8.50094 111.716 8.63215C111.716 8.81704 111.665 8.97509 111.563 9.1063C111.462 9.23155 111.34 9.29418 111.196 9.29418C111.101 9.29418 111.017 9.28225 110.946 9.25839C110.88 9.22857 110.793 9.18086 110.686 9.11525C110.465 8.99597 110.256 8.90949 110.059 8.85581C109.868 8.80213 109.659 8.77529 109.433 8.77529C108.866 8.77529 108.442 8.93334 108.161 9.24944C107.887 9.56554 107.749 10.0516 107.749 10.7077C107.749 11.3816 107.893 11.8826 108.179 12.2106C108.472 12.5327 108.916 12.6937 109.513 12.6937C109.8 12.6937 110.083 12.6639 110.364 12.6043V11.4323H109.719C109.522 11.4323 109.37 11.3846 109.262 11.2892C109.155 11.1878 109.101 11.0476 109.101 10.8687C109.101 10.6898 109.155 10.5526 109.262 10.4572C109.37 10.3558 109.522 10.3051 109.719 10.3051H111.196Z" fill="#0C7800"/>
<path d="M118.96 12.8548C119.013 12.9681 119.04 13.0784 119.04 13.1858C119.04 13.3826 118.96 13.5496 118.799 13.6868C118.643 13.824 118.464 13.8925 118.261 13.8925C118.124 13.8925 117.999 13.8568 117.885 13.7852C117.772 13.7136 117.682 13.6063 117.617 13.4631L117.214 12.5596H114.313L113.901 13.4631C113.836 13.6063 113.743 13.7136 113.624 13.7852C113.51 13.8568 113.385 13.8925 113.248 13.8925C113.045 13.8925 112.86 13.824 112.693 13.6868C112.532 13.5496 112.451 13.3826 112.451 13.1858C112.451 13.0784 112.478 12.9681 112.532 12.8548L114.895 8.00592C114.973 7.84488 115.086 7.72262 115.235 7.63912C115.39 7.54966 115.561 7.50493 115.746 7.50493C115.925 7.50493 116.092 7.54966 116.247 7.63912C116.402 7.72262 116.519 7.84488 116.596 8.00592L118.96 12.8548ZM114.868 11.325H116.659L115.764 9.32996L114.868 11.325Z" fill="#0C7800"/>
<path d="M125.036 12.819C125.144 12.98 125.198 13.1321 125.198 13.2753C125.198 13.4661 125.117 13.6271 124.956 13.7583C124.801 13.8836 124.619 13.9462 124.41 13.9462C124.266 13.9462 124.132 13.9134 124.007 13.8478C123.882 13.7822 123.774 13.6838 123.685 13.5526L122.521 11.8528C122.437 11.7335 122.348 11.647 122.252 11.5934C122.163 11.5337 122.055 11.5039 121.93 11.5039H121.348V13.1053C121.348 13.3558 121.276 13.5556 121.133 13.7047C120.99 13.8478 120.793 13.9194 120.542 13.9194C120.291 13.9194 120.091 13.8478 119.942 13.7047C119.799 13.5556 119.727 13.3558 119.727 13.1053V8.31904C119.727 8.0745 119.793 7.88663 119.924 7.75542C120.056 7.62421 120.244 7.5586 120.488 7.5586H122.736C123.5 7.5586 124.072 7.7256 124.454 8.05959C124.842 8.38762 125.036 8.86476 125.036 9.49099C125.036 9.96813 124.905 10.3737 124.642 10.7077C124.38 11.0357 124.01 11.2564 123.532 11.3697C123.729 11.3995 123.899 11.4651 124.043 11.5665C124.192 11.6679 124.338 11.82 124.481 12.0228L125.036 12.819ZM122.476 10.2693C122.84 10.2693 123.1 10.2127 123.255 10.0993C123.416 9.98602 123.497 9.80113 123.497 9.54467C123.497 9.28225 123.416 9.09438 123.255 8.98106C123.1 8.86177 122.84 8.80213 122.476 8.80213H121.33V10.2693H122.476Z" fill="#0C7800"/>
<path d="M99.193 18.6856C99.563 18.7989 99.8465 18.9898 100.044 19.2582C100.24 19.5206 100.339 19.8456 100.339 20.2333C100.339 20.5792 100.246 20.8834 100.061 21.1458C99.8824 21.4023 99.6227 21.6021 99.2825 21.7452C98.9483 21.8884 98.5543 21.9599 98.1007 21.9599H95.7193C95.4745 21.9599 95.2865 21.8943 95.1552 21.7631C95.0239 21.6319 94.9583 21.444 94.9583 21.1995V16.4133C94.9583 16.1687 95.0239 15.9809 95.1552 15.8496C95.2865 15.7184 95.4745 15.6528 95.7193 15.6528H98.0112C98.6737 15.6528 99.199 15.8019 99.5869 16.1001C99.9808 16.3924 100.178 16.789 100.178 17.29C100.178 17.612 100.091 17.8983 99.9182 18.1488C99.7451 18.3934 99.5033 18.5723 99.193 18.6856ZM96.5608 18.1309H97.7337C98.044 18.1309 98.2708 18.0832 98.4141 17.9878C98.5573 17.8924 98.6289 17.7403 98.6289 17.5315C98.6289 17.3109 98.5573 17.1498 98.4141 17.0484C98.2708 16.947 98.044 16.8963 97.7337 16.8963H96.5608V18.1309ZM97.8948 20.7164C98.2231 20.7164 98.4559 20.6657 98.5931 20.5643C98.7364 20.457 98.808 20.284 98.808 20.0454C98.808 19.8069 98.7364 19.6369 98.5931 19.5355C98.4559 19.4281 98.2231 19.3745 97.8948 19.3745H96.5608V20.7164H97.8948Z" fill="#0C7800"/>
<path d="M101.944 21.9599C101.7 21.9599 101.512 21.8943 101.38 21.7631C101.249 21.6319 101.183 21.444 101.183 21.1995V16.4133C101.183 16.1687 101.249 15.9809 101.38 15.8496C101.512 15.7184 101.7 15.6528 101.944 15.6528H105.042C105.299 15.6528 105.493 15.7065 105.624 15.8139C105.755 15.9212 105.821 16.0763 105.821 16.2791C105.821 16.7085 105.561 16.9232 105.042 16.9232H102.786V18.122H104.863C105.382 18.122 105.642 18.3337 105.642 18.7572C105.642 18.9599 105.576 19.115 105.445 19.2224C105.314 19.3297 105.12 19.3834 104.863 19.3834H102.786V20.6896H105.042C105.561 20.6896 105.821 20.9043 105.821 21.3337C105.821 21.5365 105.755 21.6915 105.624 21.7989C105.493 21.9062 105.299 21.9599 105.042 21.9599H101.944Z" fill="#0C7800"/>
<path d="M111.834 20.9132C111.942 21.0742 111.996 21.2263 111.996 21.3695C111.996 21.5603 111.915 21.7214 111.754 21.8526C111.599 21.9778 111.417 22.0404 111.208 22.0404C111.064 22.0404 110.93 22.0076 110.805 21.942C110.679 21.8764 110.572 21.778 110.483 21.6468L109.319 19.947C109.235 19.8277 109.146 19.7413 109.05 19.6876C108.961 19.6279 108.853 19.5981 108.728 19.5981H108.146V21.1995C108.146 21.45 108.074 21.6498 107.931 21.7989C107.788 21.942 107.591 22.0136 107.34 22.0136C107.089 22.0136 106.889 21.942 106.74 21.7989C106.597 21.6498 106.525 21.45 106.525 21.1995V16.4133C106.525 16.1687 106.591 15.9809 106.722 15.8496C106.854 15.7184 107.042 15.6528 107.286 15.6528H109.534C110.297 15.6528 110.87 15.8198 111.252 16.1538C111.64 16.4818 111.834 16.959 111.834 17.5852C111.834 18.0623 111.703 18.4679 111.44 18.8019C111.178 19.1299 110.808 19.3506 110.33 19.4639C110.527 19.4937 110.697 19.5593 110.841 19.6607C110.99 19.7621 111.136 19.9142 111.279 20.117L111.834 20.9132ZM109.274 18.3635C109.638 18.3635 109.898 18.3069 110.053 18.1936C110.214 18.0802 110.295 17.8953 110.295 17.6389C110.295 17.3765 110.214 17.1886 110.053 17.0753C109.898 16.956 109.638 16.8963 109.274 16.8963H108.128V18.3635H109.274Z" fill="#0C7800"/>
<path d="M117.754 18.3993C117.951 18.3993 118.106 18.456 118.219 18.5693C118.339 18.6767 118.398 18.8228 118.398 19.0077V20.5643C118.398 20.8625 118.374 21.0921 118.327 21.2532C118.285 21.4082 118.204 21.5305 118.085 21.62C117.971 21.7094 117.798 21.787 117.566 21.8526C117.333 21.9122 117.073 21.9569 116.787 21.9868C116.506 22.0225 116.244 22.0404 115.999 22.0404C115.312 22.0404 114.716 21.9122 114.208 21.6557C113.707 21.3933 113.322 21.0206 113.053 20.5375C112.785 20.0484 112.65 19.4699 112.65 18.8019C112.65 18.1458 112.785 17.5763 113.053 17.0932C113.322 16.6041 113.704 16.2284 114.199 15.9659C114.695 15.7035 115.274 15.5723 115.936 15.5723C116.354 15.5723 116.727 15.623 117.055 15.7244C117.39 15.8198 117.7 15.9689 117.986 16.1717C118.088 16.2433 118.159 16.3208 118.201 16.4043C118.249 16.4878 118.273 16.5952 118.273 16.7264C118.273 16.9113 118.222 17.0693 118.121 17.2005C118.019 17.3258 117.897 17.3884 117.754 17.3884C117.658 17.3884 117.575 17.3765 117.503 17.3526C117.437 17.3228 117.351 17.2751 117.243 17.2095C117.022 17.0902 116.814 17.0037 116.617 16.95C116.426 16.8963 116.217 16.8695 115.99 16.8695C115.423 16.8695 114.999 17.0276 114.719 17.3437C114.444 17.6598 114.307 18.1458 114.307 18.8019C114.307 19.4758 114.45 19.9768 114.736 20.3049C115.029 20.6269 115.474 20.788 116.07 20.788C116.357 20.788 116.64 20.7581 116.921 20.6985V19.5265H116.276C116.079 19.5265 115.927 19.4788 115.82 19.3834C115.712 19.282 115.659 19.1419 115.659 18.9629C115.659 18.784 115.712 18.6468 115.82 18.5514C115.927 18.45 116.079 18.3993 116.276 18.3993H117.754Z" fill="#0C7800"/>
<path d="M125.517 20.949C125.571 21.0623 125.598 21.1727 125.598 21.28C125.598 21.4768 125.517 21.6438 125.356 21.781C125.201 21.9182 125.022 21.9868 124.819 21.9868C124.681 21.9868 124.556 21.951 124.443 21.8794C124.329 21.8078 124.24 21.7005 124.174 21.5573L123.771 20.6538H120.87L120.459 21.5573C120.393 21.7005 120.3 21.8078 120.181 21.8794C120.068 21.951 119.942 21.9868 119.805 21.9868C119.602 21.9868 119.417 21.9182 119.25 21.781C119.089 21.6438 119.008 21.4768 119.008 21.28C119.008 21.1727 119.035 21.0623 119.089 20.949L121.452 16.1001C121.53 15.9391 121.643 15.8168 121.793 15.7333C121.948 15.6439 122.118 15.5991 122.303 15.5991C122.482 15.5991 122.649 15.6439 122.804 15.7333C122.959 15.8168 123.076 15.9391 123.153 16.1001L125.517 20.949ZM121.426 19.4192H123.216L122.321 17.4242L121.426 19.4192Z" fill="#0C7800"/>
<path d="M131.594 20.9132C131.701 21.0742 131.755 21.2263 131.755 21.3695C131.755 21.5603 131.674 21.7214 131.513 21.8526C131.358 21.9778 131.176 22.0404 130.967 22.0404C130.824 22.0404 130.689 22.0076 130.564 21.942C130.439 21.8764 130.331 21.778 130.242 21.6468L129.078 19.947C128.994 19.8277 128.905 19.7413 128.809 19.6876C128.72 19.6279 128.612 19.5981 128.487 19.5981H127.905V21.1995C127.905 21.45 127.834 21.6498 127.69 21.7989C127.547 21.942 127.35 22.0136 127.099 22.0136C126.849 22.0136 126.649 21.942 126.5 21.7989C126.356 21.6498 126.285 21.45 126.285 21.1995V16.4133C126.285 16.1687 126.35 15.9809 126.482 15.8496C126.613 15.7184 126.801 15.6528 127.046 15.6528H129.293C130.057 15.6528 130.63 15.8198 131.012 16.1538C131.4 16.4818 131.594 16.959 131.594 17.5852C131.594 18.0623 131.462 18.4679 131.2 18.8019C130.937 19.1299 130.567 19.3506 130.09 19.4639C130.287 19.4937 130.457 19.5593 130.6 19.6607C130.749 19.7621 130.895 19.9142 131.039 20.117L131.594 20.9132ZM129.033 18.3635C129.397 18.3635 129.657 18.3069 129.812 18.1936C129.973 18.0802 130.054 17.8953 130.054 17.6389C130.054 17.3765 129.973 17.1886 129.812 17.0753C129.657 16.956 129.397 16.8963 129.033 16.8963H127.887V18.3635H129.033Z" fill="#0C7800"/>
<path d="M138.562 20.949C138.615 21.0623 138.642 21.1727 138.642 21.28C138.642 21.4768 138.562 21.6438 138.401 21.781C138.245 21.9182 138.066 21.9868 137.863 21.9868C137.726 21.9868 137.601 21.951 137.487 21.8794C137.374 21.8078 137.284 21.7005 137.219 21.5573L136.816 20.6538H133.915L133.503 21.5573C133.438 21.7005 133.345 21.8078 133.226 21.8794C133.112 21.951 132.987 21.9868 132.85 21.9868C132.647 21.9868 132.462 21.9182 132.295 21.781C132.133 21.6438 132.053 21.4768 132.053 21.28C132.053 21.1727 132.08 21.0623 132.133 20.949L134.497 16.1001C134.575 15.9391 134.688 15.8168 134.837 15.7333C134.992 15.6439 135.163 15.5991 135.348 15.5991C135.527 15.5991 135.694 15.6439 135.849 15.7333C136.004 15.8168 136.121 15.9391 136.198 16.1001L138.562 20.949ZM134.47 19.4192H136.261L135.365 17.4242L134.47 19.4192Z" fill="#0C7800"/>
<path d="M144.182 15.6081C144.409 15.6081 144.594 15.6826 144.737 15.8317C144.886 15.9809 144.961 16.1747 144.961 16.4133V21.1995C144.961 21.444 144.889 21.6408 144.746 21.7899C144.603 21.939 144.418 22.0136 144.191 22.0136C143.922 22.0136 143.719 21.9241 143.582 21.7452L140.86 18.3546V21.1995C140.86 21.444 140.792 21.6408 140.654 21.7899C140.517 21.939 140.332 22.0136 140.099 22.0136C139.872 22.0136 139.687 21.939 139.544 21.7899C139.401 21.6408 139.329 21.444 139.329 21.1995V16.4133C139.329 16.1747 139.401 15.9809 139.544 15.8317C139.687 15.6826 139.872 15.6081 140.099 15.6081C140.356 15.6081 140.556 15.6976 140.699 15.8765L143.421 19.2582V16.4133C143.421 16.1687 143.489 15.9749 143.627 15.8317C143.77 15.6826 143.955 15.6081 144.182 15.6081Z" fill="#0C7800"/>
<path d="M148.478 22.0404C148 22.0404 147.556 21.9897 147.144 21.8884C146.738 21.781 146.404 21.6349 146.141 21.45C146.04 21.3725 145.965 21.2919 145.917 21.2084C145.875 21.1249 145.854 21.0176 145.854 20.8864C145.854 20.7074 145.908 20.5524 146.016 20.4212C146.123 20.29 146.248 20.2244 146.392 20.2244C146.469 20.2244 146.544 20.2363 146.615 20.2601C146.687 20.284 146.777 20.3287 146.884 20.3943C147.129 20.5315 147.371 20.6299 147.609 20.6896C147.854 20.7492 148.129 20.779 148.433 20.779C148.785 20.779 149.051 20.7283 149.23 20.6269C149.415 20.5196 149.507 20.3645 149.507 20.1617C149.507 20.0246 149.421 19.9083 149.248 19.8128C149.081 19.7114 148.758 19.613 148.281 19.5176C147.69 19.3924 147.227 19.2432 146.893 19.0703C146.559 18.8973 146.323 18.6945 146.186 18.4619C146.054 18.2234 145.989 17.9371 145.989 17.6031C145.989 17.2214 146.102 16.8755 146.329 16.5653C146.556 16.2552 146.866 16.0137 147.26 15.8407C147.66 15.6618 148.108 15.5723 148.603 15.5723C149.039 15.5723 149.427 15.62 149.767 15.7154C150.107 15.8109 150.417 15.96 150.698 16.1628C150.805 16.2403 150.88 16.3238 150.922 16.4133C150.97 16.4968 150.993 16.6011 150.993 16.7264C150.993 16.9053 150.94 17.0604 150.832 17.1916C150.731 17.3228 150.608 17.3884 150.465 17.3884C150.388 17.3884 150.316 17.3794 150.25 17.3616C150.185 17.3377 150.092 17.29 149.973 17.2184C149.943 17.2005 149.856 17.1558 149.713 17.0842C149.576 17.0067 149.412 16.947 149.221 16.9053C149.036 16.8576 148.833 16.8337 148.612 16.8337C148.308 16.8337 148.063 16.8934 147.878 17.0127C147.693 17.126 147.6 17.2781 147.6 17.4689C147.6 17.5822 147.633 17.6747 147.699 17.7462C147.764 17.8178 147.887 17.8894 148.066 17.961C148.245 18.0266 148.511 18.0951 148.863 18.1667C149.436 18.292 149.886 18.444 150.215 18.623C150.543 18.7959 150.776 18.9987 150.913 19.2313C151.05 19.4639 151.119 19.7383 151.119 20.0544C151.119 20.448 151.008 20.7969 150.788 21.1011C150.567 21.3993 150.256 21.6319 149.856 21.7989C149.463 21.9599 149.003 22.0404 148.478 22.0404Z" fill="#0C7800"/>
<path d="M152.865 22.0136C152.614 22.0136 152.415 21.942 152.265 21.7989C152.122 21.6498 152.05 21.45 152.05 21.1995V16.4133C152.05 16.1687 152.122 15.9749 152.265 15.8317C152.415 15.6826 152.614 15.6081 152.865 15.6081C153.122 15.6081 153.325 15.6826 153.474 15.8317C153.623 15.9749 153.698 16.1687 153.698 16.4133V21.1995C153.698 21.45 153.623 21.6498 153.474 21.7989C153.325 21.942 153.122 22.0136 152.865 22.0136Z" fill="#0C7800"/>
<path fill-rule="evenodd" clip-rule="evenodd" d="M175.659 4.77674C175.743 4.44187 175.539 4.10253 175.204 4.01881C174.87 3.93509 174.53 4.13869 174.446 4.47356L174.214 5.40266L173.495 4.68321C173.251 4.43913 172.855 4.43913 172.611 4.68321C172.367 4.92728 172.367 5.32301 172.611 5.56709L173.723 6.6788C173.415 6.76717 173.024 6.90291 172.717 7.09786C172.598 7.17367 172.481 7.26551 172.37 7.36236L172.362 7.34563C172.2 7.02149 171.947 6.67833 171.556 6.41761C171.161 6.15429 170.662 6.00015 170.053 6.00015C169.33 6.00015 168.797 6.33549 168.455 6.84878C168.139 7.32257 167.999 7.92366 167.932 8.48963C167.864 9.06721 167.865 9.68194 167.881 10.2292C167.888 10.4657 167.897 10.6818 167.906 10.8798C167.917 11.163 167.928 11.4092 167.928 11.6251C167.928 11.714 167.946 11.7986 167.98 11.8751C167.946 11.9517 167.928 12.0363 167.928 12.1252V20.1252C167.928 21.5749 169.103 22.7502 170.553 22.7502H175.053C175.398 22.7502 175.678 22.4703 175.678 22.1252C175.678 21.78 175.398 21.5002 175.053 21.5002H170.553C169.793 21.5002 169.178 20.8845 169.178 20.1252V12.7502L181.553 12.7501C181.698 12.7501 181.838 12.6997 181.949 12.6086C181.965 12.5956 181.98 12.5817 181.995 12.5671C182.003 12.5585 182.012 12.5498 182.02 12.5408C182.112 12.4372 182.17 12.3027 182.177 12.1547C182.178 12.1449 182.178 12.135 182.178 12.1251C182.178 11.466 181.868 10.5932 181.377 9.89174C180.887 9.1912 180.097 8.50015 179.053 8.50015C178.196 8.50015 177.502 8.93697 177.003 9.4877C176.916 9.07923 176.789 8.67449 176.603 8.32884C176.35 7.85851 175.901 7.4217 175.566 7.1303C175.5 7.07283 175.436 7.01891 175.376 6.96921L177.285 6.20545C177.605 6.07725 177.761 5.71352 177.633 5.39303C177.505 5.07254 177.141 4.91665 176.821 5.04485L175.456 5.59088L175.659 4.77674ZM171.454 11.5002C171.457 11.2634 171.453 10.9752 171.43 10.6731C171.42 10.5515 171.414 10.4061 171.411 10.2502H170.053C169.708 10.2502 169.428 9.97033 169.428 9.62515C169.428 9.27997 169.708 9.00015 170.053 9.00015H171.417C171.419 8.93937 171.42 8.88367 171.421 8.83449C171.423 8.76381 171.425 8.70644 171.426 8.6666L171.428 8.62137C171.427 8.61372 171.427 8.60096 171.426 8.58376C171.423 8.54569 171.417 8.48722 171.405 8.41541C171.381 8.26885 171.333 8.08297 171.244 7.90467C171.156 7.72881 171.034 7.57196 170.862 7.45768C170.695 7.34601 170.443 7.25015 170.053 7.25015C169.776 7.25015 169.621 7.3523 169.495 7.54214C169.342 7.77147 169.232 8.13913 169.174 8.63567C169.116 9.12059 169.115 9.6621 169.131 10.193C169.136 10.387 169.145 10.5874 169.153 10.7823C169.163 11.0402 169.174 11.2886 169.177 11.5002H171.454ZM172.676 10.5772C172.661 10.3831 172.656 10.0909 172.657 9.78624C172.671 9.73484 172.678 9.68085 172.678 9.62515C172.678 9.57261 172.671 9.52158 172.659 9.47283L172.66 9.40302C172.663 9.19478 172.667 9.00521 172.671 8.86765L172.671 8.8527C172.719 8.79586 172.777 8.72748 172.843 8.65458C173.028 8.4487 173.231 8.2526 173.388 8.15244C173.564 8.04065 173.861 7.93515 174.161 7.85428C174.25 7.83038 174.333 7.81014 174.405 7.79364C174.5 7.86733 174.619 7.96289 174.745 8.07294C175.062 8.34919 175.363 8.66237 175.503 8.92146C175.757 9.39473 175.879 10.1509 175.922 10.8643C175.936 11.0976 175.941 11.315 175.942 11.5001H172.705C172.707 11.2379 172.702 10.9174 172.676 10.5772ZM180.804 11.5001H177.28C177.374 11.186 177.53 10.8505 177.746 10.5526C178.117 10.0415 178.576 9.75015 179.053 9.75015C179.508 9.75015 179.969 10.0591 180.353 10.6086C180.559 10.9019 180.709 11.2177 180.804 11.5001Z" fill="#0C7800"/>
<path d="M166.343 5.81262C166.171 5.5137 165.788 5.4113 165.489 5.5839C165.19 5.75651 165.088 6.13876 165.261 6.43768L165.323 6.54589L165.24 6.5937C164.941 6.76629 164.839 7.14853 165.012 7.44747C165.184 7.7464 165.566 7.84882 165.865 7.67624L165.948 7.6284L166.011 7.73665C166.183 8.03559 166.565 8.13801 166.864 7.96542C167.163 7.79283 167.266 7.41059 167.093 7.11165L167.031 7.00341L167.102 6.96199C167.401 6.7894 167.504 6.40716 167.331 6.10823C167.159 5.80929 166.776 5.70687 166.477 5.87946L166.406 5.9209L166.343 5.81262Z" fill="#0C7800"/>
<path d="M184.489 10.5839C184.788 10.4113 185.171 10.5137 185.343 10.8126L185.406 10.9209L185.477 10.8795C185.776 10.7069 186.159 10.8093 186.331 11.1082C186.504 11.4072 186.401 11.7894 186.102 11.962L186.031 12.0034L186.093 12.1117C186.266 12.4106 186.163 12.7928 185.864 12.9654C185.565 13.138 185.183 13.0356 185.011 12.7367L184.948 12.6284L184.865 12.6762C184.566 12.8488 184.184 12.7464 184.012 12.4475C183.839 12.1485 183.941 11.7663 184.24 11.5937L184.323 11.5459L184.261 11.4377C184.088 11.1388 184.19 10.7565 184.489 10.5839Z" fill="#0C7800"/>
<path d="M179.365 5.89801C179.154 5.62486 178.762 5.57451 178.489 5.78554C178.215 5.99658 178.165 6.3891 178.376 6.66224L178.55 6.88737L178.152 6.95293C177.812 7.00908 177.581 7.33069 177.637 7.67127C177.693 8.01185 178.015 8.24243 178.356 8.18629L179.58 7.98436L181.088 8.771C181.394 8.93068 181.772 8.81205 181.931 8.50603C182.091 8.20001 181.972 7.82248 181.666 7.6628L181.411 7.52937L181.658 7.46489C181.992 7.37775 182.192 7.03635 182.105 6.70235C182.018 6.36836 181.676 6.16824 181.342 6.25538L179.927 6.62469L179.365 5.89801Z" fill="#0C7800"/>
<path d="M180.678 15.6252C180.678 15.28 180.398 15.0002 180.053 15.0002C179.708 15.0002 179.428 15.28 179.428 15.6252V19.1252C179.428 19.4703 179.708 19.7502 180.053 19.7502H182.053C182.398 19.7502 182.678 19.4703 182.678 19.1252C182.678 18.78 182.398 18.5002 182.053 18.5002H180.678V15.6252Z" fill="#0C7800"/>
<path fill-rule="evenodd" clip-rule="evenodd" d="M174.928 18.6252C174.928 15.7947 177.222 13.5002 180.053 13.5002C182.883 13.5002 185.178 15.7947 185.178 18.6252C185.178 21.4556 182.883 23.7502 180.053 23.7502C177.222 23.7502 174.928 21.4556 174.928 18.6252ZM180.053 14.7502C177.913 14.7502 176.178 16.485 176.178 18.6252C176.178 20.7653 177.913 22.5002 180.053 22.5002C182.193 22.5002 183.928 20.7653 183.928 18.6252C183.928 16.485 182.193 14.7502 180.053 14.7502Z" fill="#0C7800"/>
<path d="M191.411 10.972C191.675 10.972 191.868 11.0248 191.992 11.1304C192.115 11.236 192.176 11.3944 192.176 11.6056C192.176 12.0397 191.921 12.2568 191.411 12.2568H188.357C187.847 12.2568 187.592 12.0397 187.592 11.6056C187.592 11.3944 187.653 11.236 187.776 11.1304C187.9 11.0248 188.093 10.972 188.357 10.972H189.07V7.7952L188.366 8.2088C188.266 8.26747 188.164 8.2968 188.058 8.2968C187.894 8.2968 187.753 8.2264 187.636 8.0856C187.518 7.93893 187.46 7.7776 187.46 7.6016C187.46 7.36107 187.562 7.1792 187.768 7.056L189.176 6.2376C189.434 6.09093 189.677 6.0176 189.906 6.0176C190.141 6.0176 190.328 6.088 190.469 6.2288C190.616 6.3696 190.689 6.56027 190.689 6.8008V10.972H191.411Z" fill="#0C7800"/>
<path d="M195.429 8.2C195.81 8.2 196.148 8.28507 196.441 8.4552C196.74 8.61947 196.972 8.85413 197.136 9.1592C197.306 9.4584 197.391 9.80453 197.391 10.1976C197.391 10.62 197.292 10.9925 197.092 11.3152C196.893 11.6379 196.611 11.8872 196.247 12.0632C195.884 12.2392 195.464 12.3272 194.989 12.3272C194.625 12.3272 194.267 12.2744 193.915 12.1688C193.569 12.0632 193.27 11.9165 193.018 11.7288C192.924 11.6525 192.853 11.5733 192.806 11.4912C192.765 11.4032 192.745 11.3005 192.745 11.1832C192.745 11.0013 192.795 10.8488 192.894 10.7256C192.994 10.5965 193.117 10.532 193.264 10.532C193.352 10.532 193.425 10.5437 193.484 10.5672C193.543 10.5907 193.631 10.6347 193.748 10.6992L193.924 10.7872C194.106 10.8752 194.27 10.9456 194.417 10.9984C194.569 11.0512 194.734 11.0776 194.91 11.0776C195.238 11.0776 195.482 11.0131 195.64 10.884C195.798 10.7491 195.878 10.5408 195.878 10.2592C195.878 9.9952 195.796 9.78987 195.631 9.6432C195.467 9.49653 195.238 9.4232 194.945 9.4232C194.769 9.4232 194.608 9.43787 194.461 9.4672C194.32 9.49653 194.153 9.54933 193.959 9.6256C193.836 9.69013 193.704 9.7224 193.563 9.7224C193.399 9.7224 193.261 9.67547 193.15 9.5816C193.038 9.48187 192.982 9.3528 192.982 9.1944V6.8096C192.982 6.5632 193.047 6.37547 193.176 6.2464C193.305 6.11733 193.49 6.0528 193.73 6.0528H196.458C196.969 6.0528 197.224 6.2552 197.224 6.66C197.224 7.07067 196.969 7.276 196.458 7.276H194.558V8.3584C194.804 8.2528 195.094 8.2 195.429 8.2Z" fill="#0C7800"/>
<path d="M201.314 12.3096C200.668 12.3389 200.346 12.1219 200.346 11.6584C200.346 11.4531 200.396 11.3005 200.495 11.2008C200.595 11.1011 200.754 11.0453 200.971 11.0336L201.27 11.016C201.446 11.0101 201.578 10.9544 201.666 10.8488C201.76 10.7373 201.807 10.5877 201.807 10.4V6.8008C201.807 6.56027 201.88 6.3696 202.027 6.2288C202.173 6.08213 202.373 6.0088 202.625 6.0088C202.866 6.0088 203.059 6.08213 203.206 6.2288C203.358 6.3696 203.435 6.56027 203.435 6.8008V10.3736C203.435 10.9603 203.279 11.4179 202.968 11.7464C202.663 12.0691 202.206 12.2509 201.595 12.292L201.314 12.3096Z" fill="#0C7800"/>
<path d="M210.681 11.2624C210.734 11.3739 210.76 11.4824 210.76 11.588C210.76 11.7816 210.681 11.9459 210.523 12.0808C210.37 12.2157 210.194 12.2832 209.995 12.2832C209.86 12.2832 209.737 12.248 209.625 12.1776C209.514 12.1072 209.426 12.0016 209.361 11.8608L208.965 10.972H206.114L205.709 11.8608C205.645 12.0016 205.554 12.1072 205.436 12.1776C205.325 12.248 205.202 12.2832 205.067 12.2832C204.867 12.2832 204.685 12.2157 204.521 12.0808C204.363 11.9459 204.283 11.7816 204.283 11.588C204.283 11.4824 204.31 11.3739 204.363 11.2624L206.686 6.4928C206.762 6.3344 206.874 6.21413 207.02 6.132C207.173 6.044 207.34 6 207.522 6C207.698 6 207.862 6.044 208.015 6.132C208.167 6.21413 208.282 6.3344 208.358 6.4928L210.681 11.2624ZM206.659 9.7576H208.419L207.539 7.7952L206.659 9.7576Z" fill="#0C7800"/>
<path d="M217.12 6.0088C217.343 6.0088 217.525 6.08213 217.666 6.2288C217.807 6.37547 217.877 6.56613 217.877 6.8008V11.588C217.877 11.8109 217.813 11.9869 217.684 12.116C217.555 12.2451 217.384 12.3096 217.173 12.3096C216.968 12.3096 216.798 12.2451 216.663 12.116C216.534 11.9869 216.469 11.8109 216.469 11.588V9.0008L215.466 10.8488C215.366 11.0365 215.261 11.1715 215.149 11.2536C215.038 11.3299 214.906 11.368 214.753 11.368C214.601 11.368 214.469 11.3299 214.357 11.2536C214.246 11.1715 214.14 11.0365 214.04 10.8488L213.046 9.0536V11.588C213.046 11.8051 212.979 11.9811 212.844 12.116C212.715 12.2451 212.544 12.3096 212.333 12.3096C212.128 12.3096 211.958 12.2451 211.823 12.116C211.694 11.9869 211.629 11.8109 211.629 11.588V6.8008C211.629 6.56613 211.7 6.37547 211.84 6.2288C211.987 6.08213 212.172 6.0088 212.395 6.0088C212.553 6.0088 212.697 6.05573 212.826 6.1496C212.955 6.2376 213.064 6.36667 213.152 6.5368L214.771 9.5816L216.381 6.5368C216.563 6.1848 216.809 6.0088 217.12 6.0088Z" fill="#0C7800"/>
<path d="M188.216 21.2568C187.976 21.2568 187.791 21.1923 187.662 21.0632C187.533 20.9341 187.468 20.7493 187.468 20.5088V15.8008C187.468 15.5603 187.533 15.3755 187.662 15.2464C187.791 15.1173 187.976 15.0528 188.216 15.0528H189.994C190.68 15.0528 191.27 15.1789 191.763 15.4312C192.261 15.6776 192.643 16.0325 192.907 16.496C193.171 16.9595 193.303 17.5109 193.303 18.1504C193.303 18.7957 193.171 19.3531 192.907 19.8224C192.649 20.2859 192.27 20.6408 191.772 20.8872C191.279 21.1336 190.686 21.2568 189.994 21.2568H188.216ZM189.88 19.9544C190.484 19.9544 190.936 19.8077 191.235 19.5144C191.54 19.2152 191.692 18.7605 191.692 18.1504C191.692 17.5403 191.54 17.0885 191.235 16.7952C190.936 16.5019 190.484 16.3552 189.88 16.3552H189.088V19.9544H189.88Z" fill="#0C7800"/>
<path d="M200.202 20.2624C200.254 20.3739 200.281 20.4824 200.281 20.588C200.281 20.7816 200.202 20.9459 200.043 21.0808C199.891 21.2157 199.715 21.2832 199.515 21.2832C199.38 21.2832 199.257 21.248 199.146 21.1776C199.034 21.1072 198.946 21.0016 198.882 20.8608L198.486 19.972H195.634L195.23 20.8608C195.165 21.0016 195.074 21.1072 194.957 21.1776C194.845 21.248 194.722 21.2832 194.587 21.2832C194.388 21.2832 194.206 21.2157 194.042 21.0808C193.883 20.9459 193.804 20.7816 193.804 20.588C193.804 20.4824 193.83 20.3739 193.883 20.2624L196.206 15.4928C196.283 15.3344 196.394 15.2141 196.541 15.132C196.693 15.044 196.86 15 197.042 15C197.218 15 197.383 15.044 197.535 15.132C197.688 15.2141 197.802 15.3344 197.878 15.4928L200.202 20.2624ZM196.18 18.7576H197.94L197.06 16.7952L196.18 18.7576Z" fill="#0C7800"/>
<path d="M206.35 20.2272C206.456 20.3856 206.509 20.5352 206.509 20.676C206.509 20.8637 206.43 21.0221 206.271 21.1512C206.119 21.2744 205.94 21.336 205.734 21.336C205.594 21.336 205.462 21.3037 205.338 21.2392C205.215 21.1747 205.11 21.0779 205.022 20.9488L203.878 19.2768C203.796 19.1595 203.708 19.0744 203.614 19.0216C203.526 18.9629 203.42 18.9336 203.297 18.9336H202.725V20.5088C202.725 20.7552 202.654 20.9517 202.514 21.0984C202.373 21.2392 202.179 21.3096 201.933 21.3096C201.686 21.3096 201.49 21.2392 201.343 21.0984C201.202 20.9517 201.132 20.7552 201.132 20.5088V15.8008C201.132 15.5603 201.197 15.3755 201.326 15.2464C201.455 15.1173 201.64 15.0528 201.88 15.0528H204.089C204.84 15.0528 205.403 15.2171 205.778 15.5456C206.16 15.8683 206.35 16.3376 206.35 16.9536C206.35 17.4229 206.221 17.8219 205.963 18.1504C205.705 18.4731 205.341 18.6901 204.872 18.8016C205.066 18.8309 205.233 18.8955 205.374 18.9952C205.52 19.0949 205.664 19.2445 205.805 19.444L206.35 20.2272ZM203.834 17.7192C204.192 17.7192 204.447 17.6635 204.599 17.552C204.758 17.4405 204.837 17.2587 204.837 17.0064C204.837 16.7483 204.758 16.5635 204.599 16.452C204.447 16.3347 204.192 16.276 203.834 16.276H202.707V17.7192H203.834Z" fill="#0C7800"/>
<path d="M208.331 21.3096C208.084 21.3096 207.888 21.2392 207.741 21.0984C207.6 20.9517 207.53 20.7552 207.53 20.5088V15.8008C207.53 15.5603 207.6 15.3696 207.741 15.2288C207.888 15.0821 208.084 15.0088 208.331 15.0088C208.583 15.0088 208.782 15.0821 208.929 15.2288C209.076 15.3696 209.149 15.5603 209.149 15.8008V20.5088C209.149 20.7552 209.076 20.9517 208.929 21.0984C208.782 21.2392 208.583 21.3096 208.331 21.3096Z" fill="#0C7800"/>
<path d="M213.942 21.3096C213.696 21.3096 213.499 21.2392 213.353 21.0984C213.212 20.9517 213.141 20.7552 213.141 20.5088V15.8008C213.141 15.5603 213.206 15.3755 213.335 15.2464C213.464 15.1173 213.649 15.0528 213.889 15.0528H216.142C216.829 15.0528 217.362 15.2288 217.744 15.5808C218.125 15.9269 218.316 16.4109 218.316 17.0328C218.316 17.6488 218.122 18.1328 217.735 18.4848C217.354 18.8368 216.823 19.0128 216.142 19.0128H214.761V20.5088C214.761 20.7552 214.687 20.9517 214.541 21.0984C214.394 21.2392 214.194 21.3096 213.942 21.3096ZM215.922 17.7984C216.221 17.7984 216.441 17.7368 216.582 17.6136C216.729 17.4904 216.802 17.2997 216.802 17.0416C216.802 16.5312 216.509 16.276 215.922 16.276H214.761V17.7984H215.922Z" fill="#0C7800"/>
<path d="M224.551 20.2624C224.604 20.3739 224.63 20.4824 224.63 20.588C224.63 20.7816 224.551 20.9459 224.393 21.0808C224.24 21.2157 224.064 21.2832 223.865 21.2832C223.73 21.2832 223.607 21.248 223.495 21.1776C223.384 21.1072 223.296 21.0016 223.231 20.8608L222.835 19.972H219.984L219.579 20.8608C219.515 21.0016 219.424 21.1072 219.306 21.1776C219.195 21.248 219.072 21.2832 218.937 21.2832C218.737 21.2832 218.555 21.2157 218.391 21.0808C218.233 20.9459 218.153 20.7816 218.153 20.588C218.153 20.4824 218.18 20.3739 218.233 20.2624L220.556 15.4928C220.632 15.3344 220.744 15.2141 220.89 15.132C221.043 15.044 221.21 15 221.392 15C221.568 15 221.732 15.044 221.885 15.132C222.037 15.2141 222.152 15.3344 222.228 15.4928L224.551 20.2624ZM220.529 18.7576H222.289L221.409 16.7952L220.529 18.7576Z" fill="#0C7800"/>
<path d="M230.251 15.0088C230.474 15.0088 230.656 15.0821 230.797 15.2288C230.943 15.3755 231.017 15.5661 231.017 15.8008V20.5088C231.017 20.7493 230.946 20.9429 230.806 21.0896C230.665 21.2363 230.483 21.3096 230.26 21.3096C229.996 21.3096 229.797 21.2216 229.662 21.0456L226.986 17.7104V20.5088C226.986 20.7493 226.919 20.9429 226.784 21.0896C226.649 21.2363 226.467 21.3096 226.238 21.3096C226.015 21.3096 225.834 21.2363 225.693 21.0896C225.552 20.9429 225.482 20.7493 225.482 20.5088V15.8008C225.482 15.5661 225.552 15.3755 225.693 15.2288C225.834 15.0821 226.015 15.0088 226.238 15.0088C226.491 15.0088 226.687 15.0968 226.828 15.2728L229.503 18.5992V15.8008C229.503 15.5603 229.571 15.3696 229.706 15.2288C229.846 15.0821 230.028 15.0088 230.251 15.0088Z" fill="#0C7800"/>
<path d="M233.066 21.2568C232.825 21.2568 232.64 21.1923 232.511 21.0632C232.382 20.9341 232.318 20.7493 232.318 20.5088V15.8008C232.318 15.5603 232.382 15.3755 232.511 15.2464C232.64 15.1173 232.825 15.0528 233.066 15.0528H236.111C236.363 15.0528 236.553 15.1056 236.683 15.2112C236.812 15.3168 236.876 15.4693 236.876 15.6688C236.876 16.0912 236.621 16.3024 236.111 16.3024H233.893V17.4816H235.935C236.445 17.4816 236.7 17.6899 236.7 18.1064C236.7 18.3059 236.636 18.4584 236.507 18.564C236.377 18.6696 236.187 18.7224 235.935 18.7224H233.893V20.0072H236.111C236.621 20.0072 236.876 20.2184 236.876 20.6408C236.876 20.8403 236.812 20.9928 236.683 21.0984C236.553 21.204 236.363 21.2568 236.111 21.2568H233.066Z" fill="#0C7800"/>
<path d="M242.514 15.0088C242.737 15.0088 242.919 15.0821 243.06 15.2288C243.206 15.3755 243.28 15.5661 243.28 15.8008V20.5088C243.28 20.7493 243.209 20.9429 243.069 21.0896C242.928 21.2363 242.746 21.3096 242.523 21.3096C242.259 21.3096 242.059 21.2216 241.925 21.0456L239.249 17.7104V20.5088C239.249 20.7493 239.182 20.9429 239.047 21.0896C238.912 21.2363 238.73 21.3096 238.501 21.3096C238.278 21.3096 238.097 21.2363 237.956 21.0896C237.815 20.9429 237.745 20.7493 237.745 20.5088V15.8008C237.745 15.5661 237.815 15.3755 237.956 15.2288C238.097 15.0821 238.278 15.0088 238.501 15.0088C238.754 15.0088 238.95 15.0968 239.091 15.2728L241.766 18.5992V15.8008C241.766 15.5603 241.834 15.3696 241.969 15.2288C242.109 15.0821 242.291 15.0088 242.514 15.0088Z" fill="#0C7800"/>
</svg>
